<svg aria-hidden="true" style="width:0;height:0;position:absolute;overflow:hidden" xmlns="http://www.w3.org/2000/svg"><defs><symbol id="icon-arrow-left" viewBox="0 0 32 32"><path d="M31.083 15H5.006l6-6L9.59 7.586 1.177 16l8.414 8.414L11.005 23l-6-6h26.078v-2z"/></symbol><symbol id="icon-arrow-right" viewBox="0 0 32 32"><path d="M22.492 7.586 21.078 9l6 6H1v2h26.078l-6 6 1.414 1.414L30.906 16l-8.414-8.414z"/></symbol><symbol id="icon-down-bold" viewBox="0 0 32 32"><path d="M3.272 10.587c.362-.362.862-.586 1.414-.586s1.052.224 1.414.586l9.9 9.897 9.9-9.9a2 2 0 0 1 2.827 2.829l.001-.001-11.313 11.315c-.362.362-.862.586-1.414.586s-1.052-.224-1.414-.586L3.272 13.414c-.361-.362-.585-.861-.585-1.413s.224-1.052.585-1.413z"/></symbol><symbol id="icon-facebook" viewBox="0 0 32 32"><path opacity=".7" d="M13.912 11.099v2.203h-1.613v2.693h1.613V24h3.315v-8.005h2.224s.21-1.291.31-2.704h-2.522v-1.84c0-.277.362-.646.72-.646h1.805V8h-2.456c-3.478 0-3.397 2.696-3.397 3.099z"/><path opacity=".7" d="M6.4 3.2a3.2 3.2 0 0 0-3.2 3.2v19.2a3.2 3.2 0 0 0 3.2 3.2h19.2a3.2 3.2 0 0 0 3.2-3.2V6.4a3.2 3.2 0 0 0-3.2-3.2H6.4zm0-3.2h19.2A6.4 6.4 0 0 1 32 6.4v19.2a6.4 6.4 0 0 1-6.4 6.4H6.4A6.4 6.4 0 0 1 0 25.6V6.4A6.4 6.4 0 0 1 6.4 0z"/></symbol><symbol id="icon-instagram" viewBox="0 0 32 32"><path opacity=".7" d="M9.953 1.421c1.564-.072 2.063-.088 6.047-.088s4.483.017 6.045.088c1.563.071 2.629.32 3.563.681a7.218 7.218 0 0 1 2.597 1.693 7.158 7.158 0 0 1 1.691 2.596c.363.933.611 2 .683 3.56.072 1.567.088 2.065.088 6.048 0 3.984-.017 4.483-.088 6.047-.071 1.56-.32 2.627-.683 3.56a7.234 7.234 0 0 1-1.69 2.598l-.001.001a7.187 7.187 0 0 1-2.597 1.691c-.933.363-2 .611-3.56.683-1.565.072-2.064.088-6.048.088s-4.483-.017-6.047-.088c-1.56-.071-2.627-.32-3.56-.683a7.234 7.234 0 0 1-2.598-1.69l-.001-.001a7.196 7.196 0 0 1-1.675-2.548l-.017-.049c-.361-.933-.609-2-.681-3.56-.072-1.567-.088-2.065-.088-6.048 0-3.984.017-4.483.088-6.045s.32-2.629.681-3.563a7.243 7.243 0 0 1 1.692-2.596l.001-.001A7.192 7.192 0 0 1 6.342 2.12l.049-.017c.933-.361 2-.609 3.56-.681h.001zm11.974 2.64C20.38 3.99 19.916 3.976 16 3.976s-4.38.015-5.927.085c-1.431.065-2.207.304-2.724.505a4.57 4.57 0 0 0-1.687 1.096 4.553 4.553 0 0 0-1.086 1.655l-.01.031c-.201.517-.44 1.293-.505 2.724-.071 1.547-.085 2.011-.085 5.927s.015 4.38.085 5.927c.065 1.431.304 2.207.505 2.724a4.56 4.56 0 0 0 1.096 1.687 4.551 4.551 0 0 0 1.687 1.096c.517.201 1.293.44 2.724.505 1.547.071 2.009.085 5.927.085s4.38-.015 5.927-.085c1.431-.065 2.207-.304 2.724-.505a4.57 4.57 0 0 0 1.687-1.096 4.551 4.551 0 0 0 1.096-1.687c.201-.517.44-1.293.505-2.724.071-1.547.085-2.011.085-5.927s-.015-4.38-.085-5.927c-.065-1.431-.304-2.207-.505-2.724a4.57 4.57 0 0 0-1.096-1.687 4.566 4.566 0 0 0-1.655-1.086l-.031-.01c-.517-.201-1.293-.44-2.724-.505zm-7.8 16.46a4.893 4.893 0 1 0 3.555-9.117l-.034-.011a4.893 4.893 0 0 0-3.553 9.115l.032.012zm-3.458-9.852a7.54 7.54 0 0 1 10.662 10.662 7.54 7.54 0 0 1-10.662-10.662zm14.542-1.085a1.782 1.782 0 1 0-2.447-2.591l.001-.001a1.782 1.782 0 1 0 2.447 2.591l-.001.001z"/></symbol><symbol id="icon-location" viewBox="0 0 32 32"><path d="M16 3.214c-4.419 0-8 3.566-8 7.984 0 7.638 8 17.6 8 17.6s8-9.963 8-17.6c0-4.416-3.581-7.984-8-7.984zm0 12.4a4.32 4.32 0 1 1 0-8.64 4.32 4.32 0 1 1 0 8.64z"/></symbol><symbol id="icon-phone" viewBox="0 0 32 32"><path d="M21 2.667a3 3 0 0 1 3 3v20.667a3 3 0 0 1-3 3H11a3 3 0 0 1-3-3V5.667a3 3 0 0 1 3-3h10zm0 2H11a1 1 0 0 0-1 1v20.667a1 1 0 0 0 1 1h10a1 1 0 0 0 1-1V5.667a1 1 0 0 0-1-1zm-3.335 18.666h.001a1 1 0 0 1 .001 2l-3.333.005h-.001a1 1 0 0 1-.001-2l3.333-.005z"/></symbol><symbol id="icon-telegram" viewBox="0 0 32 32"><path opacity=".7" d="M26.069 3.996c-.342.025-.66.105-.953.23l.019-.007h-.003c-.285.113-1.64.683-3.7 1.547l-7.383 3.109-10.504 4.427.063-.024s-.36.117-.733.373a2.037 2.037 0 0 0-.587.568 1.643 1.643 0 0 0-.277 1.118l-.001-.007c.091.721.559 1.155.893 1.393.341.243.665.355.665.355h.008l4.883 1.645c.219.703 1.488 4.875 1.793 5.836.18.573.355.933.573 1.207.107.14.229.257.379.352.077.045.16.08.247.107l-.051-.013c.015.004.027.016.039.02.04.011.067.015.117.023.773.235 1.395-.245 1.395-.245l.035-.028 2.883-2.625 4.832 3.707.111.048c1.007.441 2.027.196 2.565-.239.544-.437.755-.996.755-.996l.035-.089L27.9 6.659c.107-.472.133-.915.017-1.343a1.813 1.813 0 0 0-.781-1.048 1.849 1.849 0 0 0-1.071-.269h.005zm-.1 2.049c-.004.064.008.056-.02.177v.011L22.25 25.164c-.016.027-.044.085-.117.145-.079.061-.14.1-.465-.028l-5.911-4.532-3.569 3.253.751-4.789 9.655-9c.399-.369.267-.448.267-.448.027-.453-.601-.133-.601-.133l-12.179 7.545-.003-.02-5.851-1.972c.012-.004.021-.009.031-.014l-.001.001.032-.015.031-.011 10.508-4.427c2.652-1.117 5.324-2.241 7.379-3.109 1.219-.513 2.44-1.024 3.66-1.531.083-.032.044-.032.103-.032z"/></symbol><symbol id="icon-close" viewBox="0 0 32 32"><path stroke-linejoin="round" stroke-linecap="round" stroke-width="2" d="m27.429 3.429-24 24m0-24 24 24"/></symbol></defs></svg>